<svg width="138" height="19" viewBox="0 0 138 19" fill="none" xmlns="http://www.w3.org/2000/svg">
<path d="M59.9128 11.8482H68.9753L64.1834 4.13874L55.3886 18.0778H51.3859L62.0833 1.33402C62.5484 0.657499 63.3236 0.248779 64.1834 0.248779C65.0149 0.248779 65.79 0.643412 66.2411 1.30583L76.9808 18.0778H72.9781L71.0895 14.963H61.9142L59.9128 11.8482ZM101.49 14.963V0.417908H98.0937V16.3865C98.0937 16.8234 98.2629 17.2462 98.587 17.5704C98.9111 17.8946 99.3481 18.0778 99.8273 18.0778H115.317L117.318 14.963H101.49ZM45.2973 12.3556C48.5953 12.3556 51.2732 9.69182 51.2732 6.3938C51.2732 3.09579 48.5953 0.417908 45.2973 0.417908H30.4378V18.0778H33.8331V3.5327H45.0717C46.6503 3.5327 47.9188 4.81525 47.9188 6.3938C47.9188 7.97233 46.6503 9.2549 45.0717 9.2549L35.4963 9.2408L45.6355 18.0778H50.5685L43.747 12.3556H45.2973ZM9.53639 18.0778C4.66119 18.0778 0.704956 14.1314 0.704956 9.2549C0.704956 4.37834 4.66119 0.417908 9.53639 0.417908H19.801C24.6776 0.417908 28.631 4.37834 28.631 9.2549C28.631 14.1314 24.6776 18.0778 19.801 18.0778H9.53639ZM19.5727 14.963C22.7312 14.963 25.2893 12.412 25.2893 9.2549C25.2893 6.09782 22.7312 3.5327 19.5727 3.5327H9.76326C6.60618 3.5327 4.04664 6.09782 4.04664 9.2549C4.04664 12.412 6.60618 14.963 9.76326 14.963H19.5727ZM84.0701 18.0778C79.1935 18.0778 75.2331 14.1314 75.2331 9.2549C75.2331 4.37834 79.1935 0.417908 84.0701 0.417908H96.2614L94.2742 3.5327H84.2956C81.1385 3.5327 78.5734 6.09782 78.5734 9.2549C78.5734 12.412 81.1385 14.963 84.2956 14.963H96.5433L94.542 18.0778H84.0701ZM125.605 14.963C122.998 14.963 120.785 13.2153 120.109 10.8052H134.626L136.627 7.69045H120.109C120.785 5.29446 122.998 3.5327 125.605 3.5327H135.57L137.585 0.417908H125.38C120.503 0.417908 116.543 4.37834 116.543 9.2549C116.543 14.1314 120.503 18.0778 125.38 18.0778H135.852L137.853 14.963H125.605Z" fill="#EA1B22"/>
</svg>
